<svg width="200" height="58" viewBox="0 0 200 58" fill="none" xmlns="http://www.w3.org/2000/svg">
<path d="M21.6216 14.4144C21.6216 10.434 24.8484 7.20721 28.8288 7.20721C32.8093 7.20721 36.036 10.434 36.036 14.4144C36.036 18.3948 32.8093 21.6216 28.8288 21.6216H21.6216V14.4144Z" fill="#FF69F9"/>
<path d="M21.6216 43.2432C21.6216 47.2237 24.8484 50.4505 28.8288 50.4505C32.8093 50.4505 36.036 47.2237 36.036 43.2432C36.036 39.2628 32.8093 36.036 28.8288 36.036H21.6216V43.2432Z" fill="#00D1AC"/>
<path d="M7.20721 28.8288C7.20721 24.8484 10.434 21.6216 14.4144 21.6216H21.6216V36.036H14.4144C10.434 36.036 7.20721 32.8093 7.20721 28.8288Z" fill="#2C91ED"/>
<path d="M47.7838 38.8108V18.6306H56.3171C59.8342 18.6306 62.0541 21.0811 62.0541 24.0505C62.0541 26.2414 60.8432 27.5676 59.9784 28.173C61.2468 28.8649 62.8036 30.3063 62.8036 32.9874C62.8036 36.3604 60.2955 38.8108 56.6054 38.8108H47.7838ZM50.7532 36.1586H56.4324C58.0468 36.1586 59.7189 34.9478 59.7189 32.9009C59.7189 30.9117 58.191 29.7009 56.4324 29.7009H50.7532V36.1586ZM50.7532 27.0487H55.7405C57.7874 27.0487 58.9982 25.7514 58.9982 24.1658C58.9982 22.436 57.7009 21.2829 55.9712 21.2829H50.7532V27.0487ZM72.2854 39.0703C68.8836 39.0703 66.5484 36.591 66.5484 33.3622V23.964H69.4313V32.7279C69.4313 35.0342 70.9592 36.3604 72.8908 36.3604C74.88 36.3604 76.4079 34.9189 76.4079 32.7279V23.964H79.2908V35.8414L80.3286 38.8108H77.2439L76.6673 37.2541C76.0331 38.0901 74.5628 39.0703 72.2854 39.0703ZM84.0088 38.8108V23.964H86.8917V38.8108H84.0088ZM83.3457 19.409C83.3457 18.1982 84.2394 17.3045 85.4502 17.3045C86.661 17.3045 87.5547 18.1982 87.5547 19.409C87.5547 20.591 86.661 21.5135 85.4502 21.5135C84.2394 21.5135 83.3457 20.591 83.3457 19.409ZM91.4358 38.8108V17.4775H94.3187V38.8108H91.4358ZM104.899 39.0703C100.834 39.0703 97.634 36.1874 97.634 31.373C97.634 26.9333 100.776 23.7045 104.899 23.7045C106.975 23.7045 108.964 24.6559 109.829 25.9243V17.4775H112.711V38.8108H109.829V36.9369C108.906 38.1766 106.859 39.0703 104.899 39.0703ZM100.546 31.373C100.546 34.1405 102.333 36.418 105.216 36.418C108.099 36.418 109.886 34.1405 109.886 31.373C109.886 28.6631 108.099 26.3856 105.216 26.3856C102.333 26.3856 100.546 28.6342 100.546 31.373ZM118.555 39.0703C117.373 39.0703 116.45 38.1478 116.45 36.9658C116.45 35.7838 117.373 34.8613 118.555 34.8613C119.737 34.8613 120.659 35.7838 120.659 36.9658C120.659 38.1478 119.737 39.0703 118.555 39.0703ZM131.525 36.2739C134.753 36.2739 135.993 34.8036 135.993 33.218C135.993 31.7478 134.926 30.8541 133.052 30.3928L129.881 29.6144C126.854 28.8937 124.721 27.2505 124.721 24.0793C124.721 20.591 127.719 18.3712 131.64 18.3712C135.878 18.3712 138.184 20.7928 138.876 22.9838L136.252 24.3676C135.935 22.955 134.465 21.1099 131.64 21.1099C129.276 21.1099 127.748 22.2631 127.748 24.0216C127.748 25.4919 128.843 26.3279 130.544 26.7315L133.86 27.5099C137.406 28.3748 139.078 30.4216 139.078 33.1604C139.078 36.3604 136.483 39.0703 131.467 39.0703C126.998 39.0703 124.461 36.4757 123.654 34.2559L126.22 32.8144C126.797 34.7459 128.815 36.2739 131.525 36.2739ZM142.963 38.8108V17.4775H145.846V25.809C146.682 24.5405 148.152 23.7045 150.17 23.7045C153.457 23.7045 155.705 26.155 155.705 29.355V38.8108H152.822V30.0468C152.822 27.7405 151.294 26.4144 149.334 26.4144C147.345 26.4144 145.846 27.8559 145.846 30.0468V38.8108H142.963ZM160.248 38.8108V23.964H163.13V38.8108H160.248ZM159.584 19.409C159.584 18.1982 160.478 17.3045 161.689 17.3045C162.9 17.3045 163.793 18.1982 163.793 19.409C163.793 20.591 162.9 21.5135 161.689 21.5135C160.478 21.5135 159.584 20.591 159.584 19.409ZM167.963 45.4126V23.964H170.846V25.8667C171.797 24.5982 173.584 23.7045 175.804 23.7045C179.84 23.7045 183.04 26.5874 183.04 31.4018C183.04 35.8703 179.898 39.0703 175.804 39.0703C173.584 39.0703 171.711 38.1189 170.846 36.8505V45.4126H167.963ZM170.788 31.4018C170.788 34.1117 172.575 36.3892 175.458 36.3892C178.341 36.3892 180.129 34.1405 180.129 31.4018C180.129 28.6342 178.341 26.3856 175.458 26.3856C172.575 26.3856 170.788 28.6631 170.788 31.4018ZM187.333 39.0703C186.151 39.0703 185.229 38.1478 185.229 36.9658C185.229 35.7838 186.151 34.8613 187.333 34.8613C188.515 34.8613 189.438 35.7838 189.438 36.9658C189.438 38.1478 188.515 39.0703 187.333 39.0703Z" fill="black"/>
</svg>
